<?xml version="1.0" encoding="UTF-8"?>
<svg xmlns="http://www.w3.org/2000/svg" xmlns:xlink="http://www.w3.org/1999/xlink">
  <style>
    .logo-footer, .logo-mobile, .logo-tablet, .logo-desktop {
      display: none;
    }

    @media all and (max-height: 24px) {
      .logo-mobile, .logo-tablet, .logo-desktop {
        display: none;
      }

      .logo-footer {
        display: block;
      }
    }

    @media all and (min-height: 25px) and (max-height: 39px) {
      .logo-footer, .logo-tablet, .logo-desktop {
        display: none;
      }

      .logo-mobile {
        display: block;
      }
    }

    @media all and (min-height: 40px) and (max-height: 59px) {
      .logo-footer, .logo-mobile, .logo-desktop {
        display: none;
      }

      .logo-tablet {
        display: block;
      }
    }

    @media all and (min-height: 60px){
      .logo-footer, .logo-mobile, .logo-tablet {
        display: none;
      }

      .logo-desktop {
        display: block;
      }
    }
  </style>
  <symbol id="large-icon" viewBox="0 0 70 60">
    <path d="m60.044 23.674c-5.4769-12.936-20.414-19.106-33.359-13.732s-19.119 20.4-13.742 33.336c3.5849 8.5579 11.253 14.131 19.816 15.424-0.59748-2.0897-1.195-4.3785-1.6929-6.8662 1.4937 0.99511 3.087 1.7912 4.7798 2.5873 0 0 0.09958 2.1892 0.29874 4.5775 1.7924 0 3.5849-0.099511 5.2777-0.49755v-0.79609c0.29874-1.8907 1.0954-5.1746 1.195-7.3638 1.0954-1.0946 2.0912-2.2887 2.8878-3.6819 0 0.099511 0 0.29853-0.09958 0.39804-0.59748 4.279-1.6929 8.757-2.3899 10.051-0.19916 0.39804-0.4979 0.8956-0.79664 1.1941 1.3941-0.29853 2.6887-0.79609 4.0828-1.2936 13.045-5.4731 19.119-20.4 13.742-33.336zm-1.4937 3.7814c-0.39832 0.39804-1.2945 0.69658-1.4937-0.59706-0.19916-1.2936-0.19916-2.1892-0.19916-2.1892s-1.892-3.3834-2.6887-3.4829c-0.69706 0-5.7756 3.4829-7.1698 4.9755-1.195 1.2936-1.3941 1.1941-1.3941 3.4829 0 1.6917 0.19916 8.1599 0.09958 13.036 0 0-2.1908 0.59706-8.066 2.1892-5.9748 1.5922-7.7672 1.7912-7.7672 1.7912l-0.9958-5.7716-2.6887-13.235s-3.784-1.3932-5.1782-1.7912c-1.3941-0.39804-2.2903-0.69658-3.9832 0.59706-1.7924 1.2936-1.6929 3.8809-1.6929 3.8809s0.39832 0.99511 0.4979 1.3932c0 0.49755-1.195 0.39804-1.9916 0.39804s-0.89622-1.3932-0.29874-3.0848c0.59748-1.6917 1.892-3.6819 1.892-3.6819s1.195-2.2887 2.0912-2.8858c0 0 0.09958-0.29853 1.2945-0.19902 1.0954 0.099511 7.2693 0.39804 7.2693 0.39804l0.09958-2.2887c6.6719-0.8956 13.443-1.3932 20.115-1.2936 0 0.59706 0 1.1941-0.09958 1.7912 0 0 4.3815-1.9902 8.066-1.9902 0 0 0.39832 0 0.79664 0.39804 0.29874 0.39804 2.3899 2.9853 2.6887 3.3834 0.19916 0.39804 1.195 1.6917 1.7924 2.9853-0.09958 0-0.59748 1.2936-0.9958 1.7912z" fill="#FDC305"/>
    <path d="m56.234 21.204c0.50605 0.61111 0.91088 1.1204 1.0121 1.3241 0.20242 0.40741 1.2145 1.7315 1.8218 3.0556 0 0-0.40484 1.3241-0.91088 1.8333-0.50605 0.50926-1.3157 0.71296-1.5181-0.61111-0.20242-1.3241-0.20242-2.2407-0.20242-2.2407s-1.923-3.463-2.7327-3.5648c-0.70846 0-5.8701 3.5648-7.2871 5.0926-1.2145 1.3241-1.4169 1.2222-1.4169 3.5648 0 1.5278 0.20242 6.7222 0.10121 11.407 1.8218 0.2037 4.5544 0.71296 5.3641 1.9352 0 0-0.30363-7.3333 7.8943-3.463 0 0 0.30363-9.9815 11.639-7.4352 0.10121 0-5.6677-7.1296-13.764-10.898z" fill="#F06351"/>
    <path d="m45.995 18.731c0.098986-8.2963-1.3858-16.105-1.3858-16.105s-0.098986-1.2688-0.89088-0.19521c-0.69291 1.0736-1.1878 3.9041-1.1878 3.9041-7.325-0.58562-12.67 0.19521-12.67 0.19521-0.79189-2.6353-2.1777-3.9041-2.8706-3.6113-0.59392 0.29281-0.69291 3.2209-0.69291 3.2209l-0.29696 13.86c6.6321-0.87843 13.363-1.3665 19.995-1.2688z" fill="#F06351"/>
    <path d="m45.799 47.134c0.10063-1.1092 0.20126-2.521 0.20126-4.1345 0 0-2.2138 0.60504-8.1509 2.2185-6.0377 1.6134-7.8491 1.8151-7.8491 1.8151l1.1069 5.042c0 0.10084 0 0.20168 0.10063 0.30252 1.5094 1.0084 3.1195 1.8151 4.8302 2.6218 4.4277-2.2185 6.9434-4.1345 6.9434-4.1345v0.10084c1.0063-1.1092 2.0126-2.4202 2.8176-3.8319z" fill="#E55645"/>
    <path d="m32 16.01c0-0.11058 1 0.77408 1.4 0.99524s0.6 0.44233 0.6 0.66349-0.3 0.33175-0.6 0.33175-0.9-0.11058-1-0.33175h0.9 0.3c0.1 0.11058-1.3-1.1058-1.6-1.6587z"/>
    <path d="m39.517 16.054-1.4515 1.5811c0 0.12162-0.26391 0.36486 0.26391 0.36486 0.52781 0 1.4515-0.24324 1.5834-0.36486 0.13195-0.12162 0.13195-0.24324-0.13195-0.24324s-0.92367 0-1.3195 0.12162l1.0556-1.4595c0.13195 0 0.13195-0.12162 0 0z"/>
    <path d="m36.021 22s0.6408-0.39264 0.8811-0.9816c0.2403-0.68712 0-0.88344-0.3204-0.9816s-1.0413 0-1.3617 0.29448c-0.3204 0.39264-0.2403 0.68712-0.0801 0.9816 0.1602 0.29448 0.6408 0.68712 0.8811 0.68712z"/>
    <path d="m36.062 24.1s-0.20833 0.40127-0.52083 0.60191c-0.20833 0.20064-0.625 0.40127-1.0417 0.40127-0.625 0-1.1458-0.20064-1.5625-0.40127-0.20833-0.10032-0.41667-0.30095-0.52083-0.40127-0.20833-0.20064-0.41667-0.30095-0.41667-0.30095s0.83333 4.113 2.7083 4.8153c1.875 0.70223 2.2917-0.80254 2.2917-1.1035s0-2.1067-0.83333-3.2102c0.10417-0.50159 0-0.30095-0.10417-0.40127z" fill="#F06351"/>
    <path d="m34.409 25c-1.3047 0-2.3082-1.4933-2.4086-1.4933v-0.21333h0.20072s1.0036 1.3867 2.1075 1.3867c0.60215 0 1.1039-0.32 1.6057-1.0667l0.10036-0.21333 0.10036 0.21333s0.40143 0.85333 1.0036 0.85333c0.50179 0 1.1039-0.42667 1.6057-1.3867 0-0.10667 0.10036-0.10667 0.20072 0 0.10036 0 0.10036 0.10667 0 0.21333-0.60215 1.0667-1.3047 1.6-1.9068 1.4933-0.60215 0-0.90323-0.53333-1.1039-0.85333-0.30108 0.74667-0.90323 1.0667-1.5054 1.0667z"/>
    <circle transform="translate(36 35) rotate(-22.675) translate(-36 -35)" cx="36" cy="35" r="4" fill="#FDC305"/>
    <path d="m42 31.27-3.2632 1.2908 1.1579-5.5603-7.8947 9.7305 3.2632-1.2908-1.1579 5.5603 7.8947-9.7305zm-7.7895 3.773 4.3158-5.3617-0.84211 3.9716 2.1053-0.79433-4.3158 5.3617 0.84211-3.9716-2.1053 0.79433z" fill="#111"/>
    <circle transform="translate(32 32) rotate(-22.675) translate(-32 -32)" cx="32" cy="32" r="1" fill="#111"/>
    <circle transform="translate(39 37) rotate(-22.675) translate(-39 -37)" cx="39" cy="37" r="1" fill="#111"/>
    <circle transform="translate(39.5 35.5) rotate(-22.675) translate(-39.5 -35.5)" cx="39.3" cy="35.3" r="1" fill="#111"/>
    <path d="m46.116 20.688s-2.5785 2.2589-5.0579 5.1071c-2.4793 2.8482-5.2562 4.8125-5.2562 4.8125-0.19835-0.49107-1.5868-1.4732-1.5868-1.4732s-3.0744-2.0625-5.157-3.7321c-1.1901-0.98214-2.3802-2.1607-3.0744-2.9464-0.29752 0-1.0909-0.098214-1.9835-0.098214 4.6612 6.875 11.901 8.6429 11.901 8.6429 0.89256-0.098214 3.2727-1.8661 5.0579-3.2411s4.7603-4.4196 5.9504-5.7946c0.59504-0.6875 0.89256-1.375 1.0909-1.9643-1.1901 0.29464-1.8843 0.6875-1.8843 0.6875z" fill="#F06351"/>
    <polygon points="65 3.5271 56.34 13 55 10.984 63.454 0" fill="#FDC305"/>
    <polygon points="62.581 17 68 12.747 67.226 9 62 13.861" fill="#FDC305"/>
    <polygon points="60 48.863 66.065 52 69 49.647 62.446 47" fill="#FDC305"/>
    <polygon points="2 6.3097 4.9268 3 14 11.761 12.829 14" fill="#FDC305"/>
    <polygon points="7 16 2.3662 13 0 16.677 5.0282 19" fill="#FDC305"/>
    <polygon points="13.632 53 9 56.348 11.882 60 16 55.942" fill="#FDC305"/>
    <path d="m26.07 28.276s-3.8397-1.3854-5.2544-1.7812c-1.4146-0.39583-2.324-0.69271-4.0418 0.59375-1.8188 1.2865-1.7178 3.8594-1.7178 3.8594s0.40418 0.98958 0.50523 1.3854c0 0.49479-1.2125 0.39583-2.0209 0.39583s-0.90941-1.3854-0.30314-3.0677c0.60627-1.6823 1.9199-3.6615 1.9199-3.6615-5.4564 2.7708-15.157 9.3021-15.157 9.3021s2.9303-0.29688 8.2857 0.19792c5.3554 0.49479 5.0523 4.651 5.0523 4.651s3.5366-0.98958 5.6585-1.0885 2.324 2.0781 2.324 2.0781l0.50523 3.8594s0.50523-0.59375 2.7282-2.375c1.9199-1.4844 3.9408-1.3854 4.446-1.2865l-2.9303-13.062z" fill="#F06351"/>
  </symbol>
  <symbol id="medium-icon" viewBox="0 0 70 57">
    <path d="m58.993 21.676c-5.3983-13.009-20.294-19.113-33.29-13.709-12.996 5.4036-19.194 20.414-13.696 33.422 3.5989 8.5057 11.296 14.109 19.794 15.41-0.59981-2.1014-1.1996-4.4029-1.6995-6.8045 1.4995 1.0007 3.099 1.8012 4.6985 2.5017 0 0 0.099969 2.1014 0.29991 4.503 1.7994 0 3.4989-0.10007 5.2983-0.50033v-0.80054c0.29991-1.9013 1.0997-5.2035 1.1996-7.405 1.0997-1.1007 2.0993-2.3015 2.8991-3.7025 0 0.10007 0 0.3002-0.099969 0.40027-0.59981 4.2028-1.6995 8.8059-2.3993 10.007-0.19994 0.40027-0.49984 0.9006-0.79975 1.1007 1.3996-0.3002 2.6992-0.80054 4.0987-1.3009 12.996-5.1034 19.194-20.113 13.696-33.122zm-1.3996 3.8025c-0.39988 0.40027-1.2996 0.70047-1.4995-0.6004-0.099969-1.3009-0.19994-2.2015-0.19994-2.2015s-1.8994-3.4023-2.5992-3.5023c-0.69978 0-5.7982 3.5023-7.0978 4.9033-1.1996 1.3009-1.3996 1.2008-1.3996 3.5023 0 1.7011 0.19994 8.1054 0.099969 13.109 0 0-2.1993 0.6004-8.0975 2.2015-5.8982 1.6011-7.7976 1.8012-7.7976 1.8012l-0.99969-5.8039-2.5992-13.109s-3.7988-1.4009-5.1984-1.8012c-1.3996-0.40027-2.2993-0.70047-3.9988 0.6004-1.7994 1.3009-1.6995 3.8025-1.6995 3.8025s0.39988 1.0007 0.49984 1.4009c0 0.50033-1.1996 0.40027-1.9994 0.40027s-0.89972-1.4009-0.29991-3.1021c0.59981-1.7011 1.8994-3.7025 1.8994-3.7025s1.1996-2.3015 2.0993-2.9019c0 0 0.099969-0.3002 1.1996-0.20013s7.1978 0.40027 7.1978 0.40027l0.099969-2.3015c6.6979-0.9006 13.396-1.4009 20.194-1.3009 0 0.6004 0 1.2008-0.099969 1.8012 0 0 4.3986-2.0013 8.0975-2.0013 0 0 0.39988 0 0.79975 0.40027 0.29991 0.40027 2.3993 3.002 2.5992 3.4023 0.19994 0.40027 1.1996 1.7011 1.7994 3.002-0.19994 0-0.59981 1.4009-0.99969 1.8012z" fill="#FDC305"/>
    <path d="m56.122 19.205c0.51018 0.61395 0.91832 1.1256 1.0204 1.3302 0.20407 0.4093 1.2244 1.7395 1.8366 3.0698 0 0-0.40814 1.3302-0.91832 1.8419-0.40814 0.4093-1.3265 0.71628-1.5305-0.61395-0.10204-1.3302-0.20407-2.2512-0.20407-2.2512s-1.9387-3.4791-2.6529-3.5814c-0.71425 0-5.9181 3.5814-7.2445 5.014-1.2244 1.3302-1.4285 1.2279-1.4285 3.5814 0 1.5349 0.20407 6.7535 0.10204 11.46 1.8366 0.20465 4.4896 0.71628 5.3058 1.9442 0 0-0.30611-7.2651 7.9588-3.4791 0 0 0.30611-9.9256 11.632-7.3674 0.10204 0-5.714-7.1628-13.877-10.949z" fill="#F06351"/>
    <path d="m44.995 16.731c0.098986-8.2963-1.3858-16.105-1.3858-16.105s-0.098986-1.2688-0.89088-0.19521c-0.69291 1.0736-1.1878 3.8065-1.1878 3.8065-7.325-0.39041-12.67 0.29281-12.67 0.29281-0.79189-2.6353-2.1777-3.8065-2.8706-3.5137-0.69291 0.29281-0.69291 3.2209-0.69291 3.2209l-0.29696 13.762c6.6321-0.87843 13.363-1.2688 19.995-1.2688z" fill="#F06351"/>
    <path d="m44.799 45.068c0.10063-1.1186 0.20126-2.5424 0.20126-4.0678 0 0-2.2138 0.61017-8.1509 2.2373-5.9371 1.6271-7.8491 1.8305-7.8491 1.8305l1.1069 5.0847c0 0.10169 0 0.20339 0.10063 0.30508 1.5094 1.0169 3.1195 1.8305 4.7296 2.5424 4.4277-2.2373 6.8428-4.1695 6.8428-4.1695v0.10169c1.2075-1.2203 2.2138-2.5424 3.0189-3.8644z" fill="#E55645"/>
    <path d="m32 14.01c0-0.11058 1 0.77408 1.4 0.99524s0.6 0.44233 0.6 0.66349-0.3 0.33175-0.6 0.33175-0.9-0.11058-1-0.33175h0.9 0.3c0 0.11058-1.4-1.1058-1.6-1.6587z"/>
    <path d="m39.53 14.054s-1.2861 1.5811-1.4147 1.5811-0.25721 0.36486 0.25721 0.36486c0.51443 0 1.4147-0.24324 1.5433-0.36486 0.12861-0.12162 0.12861-0.24324-0.12861-0.24324-0.25721 0-0.90025 0-1.2861 0.12162l1.0289-1.4595c0.12861 0 0.12861-0.12162 0 0z"/>
    <path d="m36.021 20s0.6408-0.39264 0.8811-0.9816c0.2403-0.58896 0-0.88344-0.3204-0.9816-0.4005-0.09816-1.0413 0-1.3617 0.29448-0.3204 0.39264-0.2403 0.68712-0.0801 0.9816 0.1602 0.19632 0.6408 0.58896 0.8811 0.68712z"/>
    <path d="m36.062 21.103s-0.20833 0.41189-0.52083 0.61783c-0.20833 0.20594-0.625 0.41189-1.0417 0.41189-0.625 0-1.1458-0.20594-1.5625-0.41189-0.20833-0.10297-0.41667-0.30892-0.52083-0.41189-0.20833-0.20594-0.41667-0.30892-0.41667-0.30892s0.72917 4.2219 2.7083 4.8397c1.875 0.61783 2.1875-0.72081 2.2917-1.1327 0-0.30892 0-2.1624-0.83333-3.2951 0-0.30892 0-0.10297-0.10417-0.30892z" fill="#F06351"/>
    <path d="m34.308 23c-0.10036 0-0.10036 0 0 0-1.3047 0-2.3082-1.4933-2.3082-1.4933v-0.21333h0.20072s1.0036 1.3867 2.1075 1.3867c0.60215 0 1.1039-0.32 1.6057-1.0667l0.10036-0.21333 0.10036 0.21333s0.40143 0.85333 1.0036 0.85333c0.50179 0 1.1039-0.42667 1.6057-1.3867 0-0.10667 0.10036-0.10667 0.20072 0 0.10036 0 0.10036 0.10667 0 0.21333-0.60215 1.0667-1.3047 1.4933-1.9068 1.4933-0.60215 0-0.90323-0.53333-1.1039-0.85333-0.40143 0.74667-1.0036 1.0667-1.6057 1.0667z"/>
    <path d="m41 29.3-3.2632 1.3 1.1579-5.6-7.8947 9.7 3.2632-1.3-1.1579 5.6 7.8947-9.7zm-7.7895 3.8 4.3158-5.4-0.84211 4 2.1053-0.8-4.3158 5.4 0.84211-4-2.1053 0.8z" fill="#111"/>
    <path d="m45.207 18.688s-2.4896 2.1607-5.0788 5.1071c-2.4896 2.8482-5.278 4.8125-5.278 4.8125-0.19917-0.49107-1.5934-1.4732-1.5934-1.4732s-3.0871-2.0625-5.1784-3.7321c-1.195-0.98214-2.2905-2.1607-3.0871-2.9464-0.29876 0-1.0954-0.098214-1.9917-0.098214 4.6805 6.875 11.95 8.6429 11.95 8.6429 0.89627-0.098214 3.2863-1.8661 5.0788-3.2411 1.7925-1.375 4.7801-4.4196 5.8755-5.7946 0.59751-0.6875 0.89627-1.375 1.0954-1.9643-1.0954 0.39286-1.7925 0.6875-1.7925 0.6875z" fill="#F06351"/>
    <path d="m26.253 25.387s-3.8667-1.3927-5.2912-1.7906c-1.4246-0.39791-2.3404-0.69634-4.0702 0.59686-1.8316 1.2932-1.7298 3.7801-1.7298 3.7801s0.40702 0.99476 0.50877 1.3927c0 0.49738-1.2211 0.39791-2.0351 0.39791s-0.91579-1.3927-0.30526-3.0838c0.61053-1.6911 1.9333-3.6806 1.9333-3.6806-5.4947 2.7853-15.263 9.3508-15.263 9.3508s2.9509-0.29843 8.3439 0.19895c5.2912 0.49738 4.986 4.6754 4.986 4.6754s3.5614-0.99476 5.6982-1.0942c2.1368-0.099476 2.3404 2.089 2.3404 2.089l0.50877 3.7801s0.50877-0.59686 2.6456-2.3874c1.9333-1.4921 3.9684-1.3927 4.4772-1.2932l-2.7474-12.932z" fill="#F06351"/>
  </symbol>
  <symbol id="small-icon" viewBox="0 0 32 38">
    <path d="m5.8816 20 0.099688-2.2361c6.6791-0.875 13.358-1.3611 20.137-1.2639 0 0.58333 0 1.1667-0.099688 1.75 0 0 2.891-1.2639 5.9813-1.75-2.3925-6.125-8.4735-10.5-15.551-10.5-8.2741 0-15.153 5.9306-16.449 13.708 2.1931 0.097222 5.8816 0.29167 5.8816 0.29167z" fill="#FDC305"/>
    <path d="m26.324 24.3c-1.1351 1.3-1.3243 1.2-1.3243 3.5v9.2c4.2568-3 7-8.1 7-13.9 0-1.1-0.094595-2.1-0.28378-3.1-1.6081 1.1-4.4459 3.2-5.3919 4.3z" fill="#FDC305"/>
    <path d="m6.6207 26.1s-3.931-1.4-5.3793-1.8c-0.41379-0.1-0.82759-0.2-1.2414-0.3 0.2069 6 3.8276 11.3 9 14l-2.3793-11.9z" fill="#FDC305"/>
    <path d="m25.995 16.638c0.098986-8.2712-1.3858-16.056-1.3858-16.056s-0.19797-1.1677-0.89088-0.19462c-0.69291 1.0704-1.1878 3.795-1.1878 3.795-7.325-0.38923-12.67 0.29192-12.67 0.29192-0.79189-2.53-2.0787-3.6977-2.7716-3.5031-0.69291 0.29192-0.69291 3.3085-0.69291 3.3085l-0.39595 13.72c6.6321-0.97308 13.363-1.3623 19.995-1.3623z" fill="#F06351"/>
    <path d="m12 14.01c0-0.11058 1 0.77408 1.4 0.99524s0.6 0.44233 0.6 0.66349-0.3 0.33175-0.6 0.33175-0.9-0.11058-1-0.33175h0.9 0.3c0.1 0.11058-1.3-1.1058-1.6-1.6587z"/>
    <path d="m20.517 14.054s-1.3195 1.5811-1.4515 1.5811c0 0.12162-0.26391 0.36486 0.26391 0.36486 0.52781 0 1.4515-0.24324 1.5834-0.36486 0.13195-0.12162 0.13195-0.24324-0.13195-0.24324s-0.92367 0-1.3195 0.12162l1.0556-1.4595s0.13195-0.12162 0 0z"/>
    <path d="m16.021 20s0.6408-0.39264 0.8811-0.9816c0.2403-0.68712 0-0.88344-0.3204-0.9816-0.4005-0.09816-1.0413 0-1.3617 0.29448-0.3204 0.39264-0.2403 0.68712-0.0801 0.9816 0.1602 0.19632 0.6408 0.58896 0.8811 0.68712z"/>
    <path d="m16.062 22.103s-0.20833 0.41189-0.52083 0.61783c-0.20833 0.20594-0.625 0.41189-1.0417 0.41189-0.625 0-1.1458-0.20594-1.5625-0.41189-0.20833-0.10297-0.41667-0.30892-0.52083-0.41189-0.20833-0.20594-0.41667-0.30892-0.41667-0.30892s0.72917 4.2219 2.7083 4.8397c1.875 0.61783 2.1875-0.72081 2.2917-1.1327 0-0.30892 0-2.1624-0.83333-3.2951 0.10417-0.41189 0-0.20594-0.10417-0.30892z" fill="#F06351"/>
    <path d="m14.308 23c-1.3047 0-2.3082-1.4933-2.3082-1.4933v-0.21333h0.20072s1.0036 1.3867 2.1075 1.3867c0.60215 0 1.1039-0.32 1.6057-1.0667l0.10036-0.21333 0.10036 0.21333s0.40143 0.85333 1.0036 0.85333c0.50179 0 1.1039-0.42667 1.6057-1.3867 0-0.10667 0.10036-0.10667 0.20072 0 0.10036 0 0.10036 0.10667 0 0.21333-0.60215 1.0667-1.3047 1.4933-1.9068 1.4933-0.60215 0-0.90323-0.53333-1.1039-0.85333-0.40143 0.74667-1.0036 1.0667-1.6057 1.0667z"/>
    <path d="m26.108 18.688s-2.4896 2.1607-5.0788 5.1071c-2.5892 2.9464-5.1784 4.8125-5.1784 4.8125-0.19917-0.49107-1.5934-1.4732-1.5934-1.4732s-3.0871-2.0625-5.1784-3.7321c-1.195-0.98214-2.2905-2.1607-3.0871-2.9464-0.29876 0-1.0954-0.098214-1.9917-0.098214 4.6805 6.875 11.95 8.6429 11.95 8.6429 0.89627-0.098214 3.2863-1.8661 5.0788-3.2411 1.7925-1.375 4.7801-4.4196 5.8755-5.7946 0.59751-0.6875 0.89627-1.375 1.0954-1.9643-1.0954 0.39286-1.8921 0.6875-1.8921 0.6875z" fill="#F06351"/>
  </symbol>
  <symbol id="full-title" viewBox="0 0 118 22">
    <path d="m1.7 20c-0.9-1.2-1.4-2.9-1.4-5.2v-7.5c0-2.3 0.5-4.1 1.4-5.2 0.9-1.2 2.5-1.8 4.8-1.8 2.1 0 3.7 0.5 4.5 1.6 0.9 1 1.3 2.5 1.3 4.5v1.8h-4.1v-1.9c0-0.6 0-1.1-0.1-1.5s-0.2-0.7-0.5-0.9c-0.2-0.2-0.6-0.4-1.2-0.4-0.8 0-1.3 0.3-1.5 0.8s-0.3 1.2-0.3 2.2v9.5c0 1 0.1 1.7 0.4 2.2s0.7 0.7 1.4 0.7 1.2-0.2 1.4-0.7 0.3-1.2 0.3-2.2v-2h4.1v1.7c0 2-0.4 3.6-1.3 4.6-0.9 1.1-2.4 1.6-4.6 1.6-2.1-0.1-3.7-0.7-4.6-1.9z" fill="#111"/>
    <path d="m17.9 0.6h4.7l4 21h-3.9l-0.8-4.6h-3.3l-0.8 4.6h-4l4.1-21zm3.7 13.7-1.3-8.4-1.2 8.4h2.5z" fill="#111"/>
    <polygon points="29.7 3.7 26.5 3.7 26.5 0.5 37.2 0.5 37.2 3.7 34 3.7 34 21.5 29.7 21.5" fill="#111"/>
    <polygon points="45.6 0.6 53.7 0.6 53.7 2.8 48.5 2.8 48.5 9.7 52.7 9.7 52.7 11.8 48.5 11.8 48.5 19.5 53.8 19.5 53.8 21.6 45.6 21.6" fill="#444"/>
    <polygon points="56.1 0.6 58.1 0.6 64.1 14.5 64.1 0.6 66.5 0.6 66.5 21.6 64.6 21.6 58.6 7.3 58.6 21.6 56.1 21.6" fill="#444"/>
    <polygon points="69.8 0.6 77.9 0.6 77.9 2.8 72.7 2.8 72.7 9.7 76.9 9.7 76.9 11.8 72.7 11.8 72.7 19.5 78 19.5 78 21.6 69.8 21.6" fill="#444"/>
    <path d="m80.4 0.6h4.2c2.1 0 3.7 0.4 4.7 1.3s1.5 2.3 1.5 4.3c0 2.7-0.9 4.3-2.6 4.9l3 10.5h-2.8l-2.7-9.8h-2.3v9.8h-2.9v-21h-0.1zm4 9c1.3 0 2.2-0.2 2.7-0.8 0.5-0.5 0.8-1.4 0.8-2.7 0-0.9-0.1-1.5-0.3-2s-0.5-0.9-1-1.1-1.2-0.3-2-0.3h-1.3v6.9h1.1z" fill="#444"/>
    <path d="m94.7 20c-0.8-1.2-1.3-3-1.3-5.3v-7c0-1.6 0.2-3 0.5-4s0.9-1.8 1.7-2.4 1.9-0.8 3.4-0.8c1.9 0 3.3 0.5 4.2 1.5s1.3 2.5 1.3 4.6v0.8h-2.7v-0.6c0-1-0.1-1.8-0.2-2.3s-0.4-1-0.8-1.2c-0.4-0.3-1-0.4-1.7-0.4-0.8 0-1.4 0.2-1.8 0.6s-0.7 0.9-0.8 1.5-0.2 1.4-0.2 2.5v7.5c0 1.6 0.2 2.8 0.6 3.5s1.1 1 2.2 1 1.8-0.4 2.2-1.1c0.4-0.8 0.6-2 0.6-3.6v-1.4h-2.7v-2.1h5.3v10.4h-1.8l-0.3-2.4c-0.7 1.8-1.9 2.7-3.7 2.7-1.8-0.2-3.2-0.8-4-2z" fill="#444"/>
    <polygon points="110.7 14.1 106.2 0.5 108.9 0.5 112.1 10.6 115.3 0.5 118 0.5 113.5 14.1 113.5 21.5 110.7 21.5" fill="#444"/>
  </symbol>
  <symbol id="title" viewBox="0 0 101 18">
    <g fill="#111">
      <path d="m1.2453 16.418c-0.83019-0.98901-1.2453-2.4725-1.2453-4.3516v-6.2308c0-1.8791 0.41509-3.3626 1.2453-4.3516 0.83019-0.98901 2.283-1.4835 4.3585-1.4835 1.9717 0 3.3208 0.3956 4.1509 1.2857 0.83019 0.89011 1.2453 2.0769 1.2453 3.7582v1.4835h-4.1509v-1.7802c0-0.69231-0.10377-1.1868-0.20755-1.5824-0.10377-0.2967-0.51887-0.49451-1.0377-0.49451-0.51887 0-1.0377 0.1978-1.1415 0.59341-0.20755 0.3956-0.31132 0.89011-0.31132 1.5824v8.2088c0 0.69231 0.10377 1.1868 0.31132 1.5824s0.51887 0.59341 1.1415 0.59341c0.51887 0 0.93396-0.1978 1.0377-0.59341 0.20755-0.3956 0.20755-0.89011 0.20755-1.5824v-1.7802h4.0472v1.4835c0 1.5824-0.41509 2.8681-1.2453 3.8571-0.83019 0.89011-2.1792 1.3846-4.1509 1.3846-1.9717-0.098901-3.4245-0.59341-4.2547-1.5824z"/>
      <path d="m15.27 0h4.4595l3.2703 18h-3.5676l-0.59459-3.7841h-2.5766l-0.59459 3.7841h-3.6667l3.2703-18zm3.1712 11.864-0.89189-7.0568-0.89189 7.0568h1.7838z"/>
      <polygon points="25.613 2.9659 23 2.9659 23 0 32 0 32 2.9659 29.387 2.9659 29.387 18 25.516 18 25.516 2.9659"/>
      <polygon points="40 0 46.9 0 46.9 1.8514 42.5 1.8514 42.5 7.8171 46.1 7.8171 46.1 9.5657 42.5 9.5657 42.5 16.149 47 16.149 47 18 40 18"/>
      <polygon points="49 0 50.719 0 55.876 11.966 55.876 0 58 0 58 18 56.382 18 51.225 5.7273 51.225 18 49.101 18 49.101 0"/>
      <path d="m60 0h6.9v1.8514h-4.4v5.9657h3.6v1.7486h-3.6v6.5829h4.5v1.8514h-7v-18z"/>
      <path d="m69 0h3.5217c1.7609 0 3.0326 0.40909 3.913 1.125 0.88043 0.71591 1.2717 1.9432 1.2717 3.6818 0 2.3523-0.68478 3.6818-2.1522 4.1932l2.4457 9h-2.3478l-2.25-8.4886h-1.8587v8.4886h-2.4457l-0.097826-18zm3.3261 7.7727c1.0761 0 1.7609-0.20455 2.25-0.61364 0.48913-0.40909 0.68478-1.2273 0.68478-2.3523 0-0.71591-0.097826-1.3295-0.19565-1.7386s-0.3913-0.71591-0.88043-0.92045c-0.3913-0.20455-0.97826-0.30682-1.663-0.30682h-1.0761v5.9318h0.88043z"/>
      <path d="m81.146 16.492c-0.72917-1.0056-1.1458-2.514-1.1458-4.5251v-5.8324c0-1.4078 0.10417-2.514 0.41667-3.419s0.83333-1.5084 1.5625-2.0112c0.72917-0.50279 1.7708-0.70391 3.0208-0.70391 1.6667 0 2.9167 0.40223 3.75 1.2067 0.72917 0.80447 1.1458 2.1117 1.1458 3.9218v0.70391h-2.3958v-0.60335c0-0.80447-0.10417-1.5084-0.20833-1.9106-0.10417-0.50279-0.3125-0.80447-0.72917-1.0056-0.3125-0.30168-0.83333-0.40223-1.4583-0.40223-0.72917 0-1.25 0.20112-1.5625 0.50279s-0.625 0.70391-0.72917 1.2067c-0.10417 0.50279-0.10417 1.2067-0.10417 2.1117v6.5363c0 1.3073 0.20833 2.3128 0.52083 2.9162 0.3125 0.60335 1.0417 0.90503 1.9792 0.90503s1.6667-0.30168 1.9792-1.0056c0.3125-0.60335 0.52083-1.7095 0.52083-3.1173v-1.2067h-2.3958v-1.7095h4.6875v8.7486h-1.6667l-0.20833-2.0112c-0.625 1.5084-1.6667 2.2123-3.3333 2.2123-1.6667 0-2.9167-0.50279-3.6458-1.5084z"/>
      <polygon points="93.9 11.659 90 9.0836e-16 92.3 9.0836e-16 95 8.6932 97.7 0 100 0 96.2 11.659 96.2 18 93.8 18 93.8 11.659"/>
    </g>
  </symbol>

  <g class="logo-footer">
    <use xlink:href="#title" x="0" y="0" width="128" height="24"></use>
  </g>
  <g class="logo-mobile">
    <use xlink:href="#small-icon" x="0" y="0" width="34" height="38"></use>
    <use xlink:href="#title" x="84" y="13" width="109" height="19"></use>
  </g>
  <g class="logo-tablet">
    <use xlink:href="#medium-icon" x="0" y="0" width="70" height="58"></use>
    <use xlink:href="#full-title" x="88" y="24" width="85" height="16"></use>
  </g>
  <g class="logo-desktop">
    <use xlink:href="#large-icon" x="0" y="0" width="71" height="60"></use>
    <use xlink:href="#full-title" x="84" y="22" width="118" height="22"></use>
  </g>
</svg>
